<mxfile host="app.diagrams.net" modified="2020-12-15T01:41:16.542Z" agent="5.0 (Windows NT 10.0; Win64; x64) AppleWebKit/537.36 (KHTML, like Gecko) Chrome/87.0.4280.88 Safari/537.36" etag="JOalRsL7MpMc9--Dy9rB" version="14.0.1" type="github">
  <diagram name="Page-1" id="2a216829-ef6e-dabb-86c1-c78162f3ba2b">
    <mxGraphModel dx="2370" dy="1323" grid="1" gridSize="10" guides="1" tooltips="1" connect="1" arrows="1" fold="1" page="1" pageScale="1" pageWidth="1100" pageHeight="850" background="#ffffff" math="0" shadow="0">
      <root>
        <mxCell id="0" />
        <mxCell id="1" parent="0" />
        <mxCell id="l-q9_zFQs6bWL273texg-9" value="&lt;span style=&quot;color: rgba(0 , 0 , 0 , 0) ; font-family: monospace ; font-size: 0px ; font-weight: 400 ; background-color: rgb(248 , 249 , 250)&quot;&gt;dxgfhgfhkjlj&lt;/span&gt;" style="swimlane;html=1;childLayout=stackLayout;resizeParent=1;resizeParentMax=0;horizontal=0;startSize=20;horizontalStack=0;" vertex="1" parent="1">
          <mxGeometry x="160" y="100" width="800" height="1020" as="geometry">
            <mxRectangle x="160" y="100" width="30" height="20" as="alternateBounds" />
          </mxGeometry>
        </mxCell>
        <mxCell id="l-q9_zFQs6bWL273texg-10" value="" style="swimlane;html=1;startSize=20;horizontal=0;" vertex="1" parent="l-q9_zFQs6bWL273texg-9">
          <mxGeometry x="20" width="780" height="180" as="geometry">
            <mxRectangle x="20" width="780" height="40" as="alternateBounds" />
          </mxGeometry>
        </mxCell>
        <mxCell id="l-q9_zFQs6bWL273texg-16" value="Buku Absen" style="text;html=1;strokeColor=none;fillColor=none;align=center;verticalAlign=middle;whiteSpace=wrap;rounded=0;rotation=-90;fontStyle=1" vertex="1" parent="l-q9_zFQs6bWL273texg-10">
          <mxGeometry x="-50" y="80" width="120" height="20" as="geometry" />
        </mxCell>
        <mxCell id="l-q9_zFQs6bWL273texg-17" value="data kehadiran karyawan&amp;nbsp;" style="rounded=0;whiteSpace=wrap;html=1;" vertex="1" parent="l-q9_zFQs6bWL273texg-10">
          <mxGeometry x="70" y="60" width="120" height="60" as="geometry" />
        </mxCell>
        <mxCell id="l-q9_zFQs6bWL273texg-11" value="departemen keuangan" style="swimlane;html=1;startSize=20;horizontal=0;" vertex="1" parent="l-q9_zFQs6bWL273texg-9">
          <mxGeometry x="20" y="180" width="780" height="210" as="geometry" />
        </mxCell>
        <mxCell id="l-q9_zFQs6bWL273texg-19" value="proses pendataan gaji" style="rounded=0;whiteSpace=wrap;html=1;" vertex="1" parent="l-q9_zFQs6bWL273texg-11">
          <mxGeometry x="70" y="97.5" width="110" height="40" as="geometry" />
        </mxCell>
        <mxCell id="l-q9_zFQs6bWL273texg-20" value="" style="ellipse;shape=doubleEllipse;whiteSpace=wrap;html=1;aspect=fixed;" vertex="1" parent="l-q9_zFQs6bWL273texg-11">
          <mxGeometry x="220" y="90" width="47.5" height="47.5" as="geometry" />
        </mxCell>
        <mxCell id="l-q9_zFQs6bWL273texg-21" value="membuat slip gaji" style="rounded=0;whiteSpace=wrap;html=1;" vertex="1" parent="l-q9_zFQs6bWL273texg-11">
          <mxGeometry x="330" y="91.25" width="100" height="45" as="geometry" />
        </mxCell>
        <mxCell id="l-q9_zFQs6bWL273texg-22" value="membuat daftar gaji" style="rounded=0;whiteSpace=wrap;html=1;" vertex="1" parent="l-q9_zFQs6bWL273texg-11">
          <mxGeometry x="494" y="92.5" width="100" height="45" as="geometry" />
        </mxCell>
        <mxCell id="l-q9_zFQs6bWL273texg-28" value="menghitung pajak&amp;nbsp;" style="text;html=1;strokeColor=none;fillColor=none;align=center;verticalAlign=middle;whiteSpace=wrap;rounded=0;" vertex="1" parent="l-q9_zFQs6bWL273texg-11">
          <mxGeometry x="188.75" y="145" width="110" height="20" as="geometry" />
        </mxCell>
        <mxCell id="l-q9_zFQs6bWL273texg-30" value="" style="endArrow=classic;html=1;" edge="1" parent="l-q9_zFQs6bWL273texg-11">
          <mxGeometry width="50" height="50" relative="1" as="geometry">
            <mxPoint x="180" y="114" as="sourcePoint" />
            <mxPoint x="216" y="114" as="targetPoint" />
          </mxGeometry>
        </mxCell>
        <mxCell id="l-q9_zFQs6bWL273texg-31" value="" style="endArrow=classic;html=1;entryX=0;entryY=0.5;entryDx=0;entryDy=0;" edge="1" parent="l-q9_zFQs6bWL273texg-11" target="l-q9_zFQs6bWL273texg-21">
          <mxGeometry width="50" height="50" relative="1" as="geometry">
            <mxPoint x="267.5" y="113.32999999999998" as="sourcePoint" />
            <mxPoint x="320" y="113" as="targetPoint" />
          </mxGeometry>
        </mxCell>
        <mxCell id="l-q9_zFQs6bWL273texg-32" value="" style="endArrow=classic;html=1;entryX=0;entryY=0.5;entryDx=0;entryDy=0;" edge="1" parent="l-q9_zFQs6bWL273texg-11">
          <mxGeometry width="50" height="50" relative="1" as="geometry">
            <mxPoint x="430" y="113.32999999999993" as="sourcePoint" />
            <mxPoint x="492.5" y="113.75" as="targetPoint" />
          </mxGeometry>
        </mxCell>
        <mxCell id="l-q9_zFQs6bWL273texg-33" value="" style="endArrow=classic;html=1;entryX=0.5;entryY=0;entryDx=0;entryDy=0;" edge="1" parent="l-q9_zFQs6bWL273texg-11" target="l-q9_zFQs6bWL273texg-24">
          <mxGeometry width="50" height="50" relative="1" as="geometry">
            <mxPoint x="544" y="138.75" as="sourcePoint" />
            <mxPoint x="594" y="88.75" as="targetPoint" />
          </mxGeometry>
        </mxCell>
        <mxCell id="l-q9_zFQs6bWL273texg-29" value="" style="endArrow=classic;html=1;exitX=0.5;exitY=1;exitDx=0;exitDy=0;exitPerimeter=0;" edge="1" parent="l-q9_zFQs6bWL273texg-11" source="l-q9_zFQs6bWL273texg-17">
          <mxGeometry width="50" height="50" relative="1" as="geometry">
            <mxPoint x="130" y="-52.5" as="sourcePoint" />
            <mxPoint x="130" y="97.5" as="targetPoint" />
          </mxGeometry>
        </mxCell>
        <mxCell id="l-q9_zFQs6bWL273texg-12" value="Lane 3" style="swimlane;html=1;startSize=20;horizontal=0;fontStyle=0" vertex="1" parent="l-q9_zFQs6bWL273texg-9">
          <mxGeometry x="20" y="390" width="780" height="630" as="geometry" />
        </mxCell>
        <mxCell id="l-q9_zFQs6bWL273texg-14" value="" style="swimlane;html=1;startSize=20;horizontal=0;" vertex="1" parent="l-q9_zFQs6bWL273texg-12">
          <mxGeometry y="210" width="780" height="420" as="geometry" />
        </mxCell>
        <mxCell id="l-q9_zFQs6bWL273texg-15" value="karyawan" style="swimlane;html=1;startSize=20;horizontal=0;" vertex="1" parent="l-q9_zFQs6bWL273texg-14">
          <mxGeometry y="210" width="780" height="210" as="geometry" />
        </mxCell>
        <mxCell id="l-q9_zFQs6bWL273texg-26" value="mengambil gaji via rekening bank" style="rounded=0;whiteSpace=wrap;html=1;" vertex="1" parent="l-q9_zFQs6bWL273texg-15">
          <mxGeometry x="480" y="70" width="120" height="60" as="geometry" />
        </mxCell>
        <mxCell id="l-q9_zFQs6bWL273texg-27" value="selesai" style="ellipse;shape=doubleEllipse;whiteSpace=wrap;html=1;aspect=fixed;" vertex="1" parent="l-q9_zFQs6bWL273texg-15">
          <mxGeometry x="660" y="70" width="58.75" height="58.75" as="geometry" />
        </mxCell>
        <mxCell id="l-q9_zFQs6bWL273texg-37" value="" style="endArrow=classic;html=1;entryX=0;entryY=0.5;entryDx=0;entryDy=0;" edge="1" parent="l-q9_zFQs6bWL273texg-15" target="l-q9_zFQs6bWL273texg-27">
          <mxGeometry width="50" height="50" relative="1" as="geometry">
            <mxPoint x="600" y="99.57999999999993" as="sourcePoint" />
            <mxPoint x="650" y="100" as="targetPoint" />
          </mxGeometry>
        </mxCell>
        <mxCell id="l-q9_zFQs6bWL273texg-25" value="menerima data system payroll" style="rounded=0;whiteSpace=wrap;html=1;" vertex="1" parent="l-q9_zFQs6bWL273texg-14">
          <mxGeometry x="480" y="80" width="120" height="55" as="geometry" />
        </mxCell>
        <mxCell id="l-q9_zFQs6bWL273texg-34" value="bank" style="text;html=1;strokeColor=none;fillColor=none;align=center;verticalAlign=middle;whiteSpace=wrap;rounded=0;rotation=-90;fontStyle=1" vertex="1" parent="l-q9_zFQs6bWL273texg-14">
          <mxGeometry x="-10" y="97.5" width="40" height="20" as="geometry" />
        </mxCell>
        <mxCell id="l-q9_zFQs6bWL273texg-35" value="" style="endArrow=classic;html=1;entryX=0.5;entryY=0;entryDx=0;entryDy=0;" edge="1" parent="l-q9_zFQs6bWL273texg-14">
          <mxGeometry width="50" height="50" relative="1" as="geometry">
            <mxPoint x="543.4999999999998" y="-76.25" as="sourcePoint" />
            <mxPoint x="544.5" y="80" as="targetPoint" />
          </mxGeometry>
        </mxCell>
        <mxCell id="l-q9_zFQs6bWL273texg-36" value="" style="endArrow=classic;html=1;entryX=0.5;entryY=0;entryDx=0;entryDy=0;" edge="1" parent="l-q9_zFQs6bWL273texg-14">
          <mxGeometry width="50" height="50" relative="1" as="geometry">
            <mxPoint x="541" y="134" as="sourcePoint" />
            <mxPoint x="540.5000000000002" y="280.25" as="targetPoint" />
          </mxGeometry>
        </mxCell>
        <mxCell id="l-q9_zFQs6bWL273texg-23" value="pimpinan" style="text;html=1;strokeColor=none;fillColor=none;align=center;verticalAlign=middle;whiteSpace=wrap;rounded=0;rotation=-90;fontStyle=1" vertex="1" parent="l-q9_zFQs6bWL273texg-12">
          <mxGeometry x="-10" y="100" width="40" height="20" as="geometry" />
        </mxCell>
        <mxCell id="l-q9_zFQs6bWL273texg-24" value="menyetujui" style="rounded=0;whiteSpace=wrap;html=1;" vertex="1" parent="l-q9_zFQs6bWL273texg-12">
          <mxGeometry x="490" y="85" width="110" height="50" as="geometry" />
        </mxCell>
        <mxCell id="l-q9_zFQs6bWL273texg-50" value="&lt;font style=&quot;font-size: 36px&quot;&gt;System Imformasi Payroll&lt;/font&gt;" style="text;html=1;strokeColor=none;fillColor=none;align=center;verticalAlign=middle;whiteSpace=wrap;rounded=0;rotation=-90;" vertex="1" parent="1">
          <mxGeometry x="-120" y="600" width="490" height="20" as="geometry" />
        </mxCell>
      </root>
    </mxGraphModel>
  </diagram>
</mxfile>
